<?xml version="1.0" standalone="no"?>
<!DOCTYPE svg PUBLIC "-//W3C//DTD SVG 20010904//EN"
 "http://www.w3.org/TR/2001/REC-SVG-20010904/DTD/svg10.dtd">
<svg version="1.0" xmlns="http://www.w3.org/2000/svg"
 width="900.000000pt" height="708.000000pt" viewBox="0 0 900.000000 708.000000"
 preserveAspectRatio="xMidYMid meet">

<g transform="translate(0.000000,708.000000) scale(0.100000,-0.100000)"
fill="#000000" stroke="none">
<path d="M4360 5659 c-278 -18 -519 -81 -777 -204 -644 -307 -1090 -920 -1188
-1630 -20 -139 -22 -406 -5 -539 58 -460 261 -887 579 -1220 119 -123 285
-256 431 -344 498 -299 1070 -381 1642 -237 270 69 593 234 808 414 272 227
490 525 618 841 54 135 63 162 92 279 37 152 48 219 59 376 46 622 -199 1252
-656 1685 -429 407 -1012 618 -1603 579z m405 -269 c351 -49 711 -217 987
-462 280 -250 497 -627 577 -1003 43 -206 48 -498 12 -698 -72 -401 -244 -732
-526 -1011 -289 -287 -662 -472 -1060 -528 -119 -16 -398 -16 -510 1 -210 31
-390 87 -580 182 -365 182 -655 472 -834 834 -139 282 -195 518 -195 830 -1
318 56 561 194 840 223 447 617 787 1089 939 123 40 307 78 431 90 71 6 327
-2 415 -14z"/>
<path d="M5305 4946 c-33 -8 -134 -40 -225 -71 -488 -168 -522 -174 -678 -125
-77 24 -115 25 -136 4 -20 -20 -20 -47 0 -115 19 -65 58 -105 164 -169 71 -43
77 -45 150 -43 41 0 120 8 174 17 54 9 100 15 102 13 9 -9 -30 -180 -45 -198
-41 -51 -319 -87 -451 -59 -66 14 -90 5 -90 -33 0 -25 199 -226 249 -252 41
-21 84 -21 167 -2 l61 14 -8 -51 c-5 -28 -18 -92 -29 -142 l-21 -91 -104 -18
c-163 -28 -246 -5 -378 104 -138 114 -138 113 -185 107 l-43 -6 6 113 c3 61
12 262 21 446 l15 334 -30 62 c-36 72 -59 87 -165 106 -79 13 -221 7 -257 -11
-41 -21 -104 -76 -118 -103 -13 -24 -11 -29 32 -82 69 -83 105 -165 118 -265
14 -101 17 -539 6 -730 -4 -74 -16 -274 -27 -445 -31 -506 -32 -537 -33 -687
-1 -142 0 -143 31 -206 53 -104 143 -187 224 -210 47 -13 73 4 98 64 33 75 43
189 65 704 16 357 23 447 35 433 4 -4 15 -30 25 -58 30 -86 118 -246 145 -265
14 -9 50 -28 80 -40 30 -13 68 -36 84 -51 29 -27 29 -27 34 -178 3 -83 -1
-214 -7 -292 l-12 -141 27 -39 c29 -42 123 -123 176 -151 48 -26 82 -22 151
16 50 28 83 37 172 50 257 36 660 69 742 60 35 -3 63 -4 63 -1 0 3 39 169 87
369 48 200 89 384 91 409 3 33 -2 58 -17 86 -25 51 -119 136 -185 170 -85 43
-167 38 -751 -48 -148 -22 -306 -45 -349 -51 -76 -11 -80 -11 -97 10 -20 25
-54 110 -47 117 2 3 36 -2 74 -10 96 -20 152 -19 300 9 166 31 499 82 589 91
218 19 335 12 498 -31 165 -43 187 -46 214 -29 18 12 23 25 23 58 0 83 -60
139 -262 247 -172 92 -163 73 -112 226 24 71 48 167 55 214 11 79 10 89 -10
141 -12 32 -40 77 -64 102 -63 67 -112 70 -396 26 -68 -11 -125 -18 -127 -16
-3 2 0 47 6 98 14 117 27 133 130 160 96 25 200 25 282 -1 122 -38 147 -22
121 79 -30 113 -85 193 -163 235 -63 34 -172 43 -265 22z m97 -864 c7 -26 -27
-162 -62 -246 l-31 -74 -97 -11 c-53 -7 -106 -14 -118 -16 l-20 -4 21 127 c33
194 24 181 165 218 105 28 136 30 142 6z m38 -1087 c0 -84 -64 -405 -83 -417
-18 -11 -120 -27 -348 -53 -281 -33 -266 -33 -278 13 -16 59 -32 329 -21 357
5 13 18 29 30 35 27 15 148 35 345 60 88 11 174 21 190 23 17 2 60 5 98 6 65
1 67 0 67 -24z"/>
<path d="M3215 3962 c-15 -190 -29 -294 -51 -380 -46 -177 -185 -504 -247
-578 -57 -68 -56 -87 2 -199 50 -98 107 -155 153 -155 41 0 96 36 152 101 56
63 135 238 200 437 106 325 134 481 122 677 -3 55 -6 103 -6 107 0 14 -123 42
-277 62 l-41 6 -7 -78z"/>
</g>
</svg>
